<?xml version="1.0" encoding="utf-8"?>
<!-- Generator: Adobe Illustrator 25.3.1, SVG Export Plug-In . SVG Version: 6.00 Build 0)  -->
<svg version="1.1" id="dPercentile" xmlns="http://www.w3.org/2000/svg" xmlns:xlink="http://www.w3.org/1999/xlink" x="0px"
	 y="0px" viewBox="0 0 150 150" style="enable-background:new 0 0 150 150;" xml:space="preserve">
<style type="text/css">
	.st0{fill:#FFFFFF;}
</style>
<path d="M75,12.5c-1.2,0-2.5,0.5-3.5,1.4l-56.2,54c-1.5,1.4-1.9,3.6-1.2,5.4L19,85.6c0.3,0.7,0.7,1.3,1.2,1.8l51.4,48.8
	c1,0.9,2.2,1.4,3.4,1.4s2.5-0.5,3.4-1.4l51.4-48.8c0.5-0.5,0.9-1.1,1.2-1.8l4.8-12.3c0.7-1.9,0.3-4-1.2-5.4l-56.2-54
	C77.5,13,76.2,12.5,75,12.5L75,12.5z"/>
<path class="st0" d="M131.2,71.5l-4.8,12.3l-11.9-2.6l-7.3-11.7l6.9,7.2c1,1.1,2.4,1.8,3.8,2.1l5.4,1.1c1.4,0.3,2.9-0.3,3.6-1.5
	L131.2,71.5z M72.9,24.2c1-1.4,3.1-1.3,4,0.1l23.4,34L75,17.5L60.3,41.2L72.9,24.2z M79.7,96.5l9-5.8l-13.6,5v36.8l2.5-32.5
	C77.7,98.6,78.4,97.2,79.7,96.5z M23.6,83.7L50.3,109L29.7,87.2c-1-1.1-0.5-2.9,1-3.3l2.4-0.5c1.7-0.4,3.5-0.4,5.2-0.1l6.4,1.2
	l-9.1-3.3L23.6,83.7l-1.3-9.3c-0.2-1.6,0.3-3.3,1.4-4.5L54,37.6L18.8,71.5L23.6,83.7"/>
<path class="st0" d="M65.9,58.7v26.7h-7.7v-1.6c-1.2,1.3-3,2-5.4,2c-5.1,0-9.5-3.9-9.5-10.2c0-6.3,4.4-10.2,9.5-10.2
	c2.2,0,3.8,0.5,5,1.7v-8.4H65.9z M57.9,75.6c0-2.6-1.4-3.9-3.2-3.9s-3.2,1.3-3.2,3.9s1.4,3.9,3.2,3.9S57.9,78.1,57.9,75.6z
	 M80.7,60.2v25.2h-8.5V66.6h-4.3v-6.4H80.7z M83.8,72.8c0-8.4,4.8-13.2,11.4-13.2s11.4,4.8,11.4,13.2c0,8.4-4.8,13.2-11.4,13.2
	S83.8,81.2,83.8,72.8z M98.1,72.8c0-4.9-1.2-6.4-2.9-6.4s-2.9,1.5-2.9,6.4s1.2,6.4,2.9,6.4S98.1,77.7,98.1,72.8z"/>
</svg>
