<?xml version="1.0" encoding="utf-8"?>
<!-- Generator: Adobe Illustrator 25.3.1, SVG Export Plug-In . SVG Version: 6.00 Build 0)  -->
<svg version="1.1" id="d12" xmlns="http://www.w3.org/2000/svg" xmlns:xlink="http://www.w3.org/1999/xlink" x="0px" y="0px"
	 viewBox="0 0 150 150" style="enable-background:new 0 0 150 150;" xml:space="preserve">
<style type="text/css">
	.st0{fill:#FFFFFF;}
</style>
<path d="M134.2,55.5l-22-28.5c-0.6-0.7-1.3-1.3-2.2-1.6L76.8,12.8c-0.6-0.2-1.2-0.3-1.8-0.3s-1.2,0.1-1.8,0.3L40,25.3
	c-0.9,0.3-1.6,0.9-2.2,1.6l-22,28.5c-0.7,0.9-1.1,2.1-1,3.3l1.9,37.7c0.1,1.1,0.5,2.1,1.2,3l19.9,23.7c0.6,0.7,1.3,1.2,2.1,1.5
	l33.5,12.5c0.6,0.2,1.2,0.3,1.7,0.3c0.6,0,1.2-0.1,1.7-0.3l33.5-12.5c0.8-0.3,1.5-0.8,2.1-1.5l19.9-23.7c0.7-0.8,1.1-1.9,1.2-3
	l1.9-37.7C135.3,57.6,135,56.5,134.2,55.5z"/>
<path class="st0" d="M37.4,90.5L75,116.4l37.6-25.9l-32.7,25.1c-1.7,1.3-2.8,3.2-3.1,5.3L75,132.5v-16.1L39.8,95
	c-1.7-1-3.7-1.4-5.7-1l-12.5,2.4l-1.9-37.7l22-28.5L75,17.5L108.3,30l22,28.5l-19.4-23c-0.9-1.1-2.7-1-3.5,0.3L98.2,52H51.8
	l42.9-2.3c1.4-0.1,2.6-0.8,3.3-2L108.3,30l-29.8-9.4c-2.2-0.7-4.6-0.6-6.8,0.2l-24.3,9.2c-1.4,0.5-2.1,2.1-1.7,3.5L51.8,52l-10-22
	L23.9,56.6c-1.2,1.9-1.9,4-1.9,6.3l-0.3,33.4L37.4,90.5z"/>
<path class="st0" d="M67.4,58.7v26.7h-7.7v-1.6c-1.2,1.3-3,2-5.4,2c-5.1,0-9.5-3.9-9.5-10.2c0-6.3,4.4-10.2,9.5-10.2
	c2.2,0,3.8,0.5,5,1.7v-8.4H67.4z M59.4,75.6c0-2.6-1.4-3.9-3.2-3.9S53,73,53,75.6s1.4,3.9,3.2,3.9S59.4,78.1,59.4,75.6z M82.2,60.2
	v25.2h-8.5V66.7h-4.3v-6.4H82.2z M105.5,78.9v6.6H85.3v-5.2l9.1-8.4c1.7-1.6,2-2.6,2-3.5c0-1.2-0.8-2-2.4-2c-1.5,0-3,0.8-3.7,2.3
	l-6.4-3.2c1.8-3.5,5.5-5.8,10.9-5.8c6,0,10.2,3.1,10.2,7.9c0,2.5-0.6,4.7-4.3,8L97,78.9H105.5z"/>
</svg>
