<?xml version="1.0" encoding="utf-8"?>
<!-- Generator: Adobe Illustrator 25.3.1, SVG Export Plug-In . SVG Version: 6.00 Build 0)  -->
<svg version="1.1" id="d20" xmlns="http://www.w3.org/2000/svg" xmlns:xlink="http://www.w3.org/1999/xlink" x="0px" y="0px"
	 viewBox="0 0 150 150" style="enable-background:new 0 0 150 150;" xml:space="preserve">
<style type="text/css">
	.st0{fill:#FFFFFF;}
</style>
<path d="M75,12.5c-0.8,0-1.6,0.2-2.3,0.5L21,39.5c-1.8,0.9-2.8,2.8-2.7,4.7l3.3,59.1c0.1,1.6,1,3.1,2.4,4l48.5,29.4
	c0.8,0.5,1.7,0.7,2.6,0.7s1.8-0.2,2.6-0.7l48.5-29.4c1.4-0.9,2.3-2.4,2.4-4l3.3-59.1c0.1-2-1-3.8-2.7-4.7L77.3,13
	C76.6,12.7,75.8,12.5,75,12.5L75,12.5z"/>
<path class="st0" d="M111.8,93l15-49.1l-11.6,44.4c-0.6,2.4,0,4.9,1.5,6.7l6.8,8l-8.2-5.1c-2-1.2-4.5-0.9-6.2,0.7L75,132.5
	L41.8,99.3c-1.9-1.9-4.8-2.3-7.1-1l-8.2,4.7l11.7-10l-15-49.1L75,17.5L35.9,38.2c-0.9,0.5-0.4,1.7,0.6,1.5L75,31.4V17.5l1.6,8.4
	c0.4,2,1.9,3.6,3.8,4.2l30.6,9.9L75,31.4l15.4,25.8L77.1,39.4c-1.1-1.4-3.2-1.4-4.2,0L59.6,57.2L75,31.4L33.6,44
	c-3.8,1.2-6.1,5.1-5.1,9L38.2,93H111.8l-64,1.7c-2.4,0.1-3.6,2.9-2,4.7L75,132.5L111.8,93z"/>
<path class="st0" d="M62.5,58.7v26.7h-7.7v-1.6c-1.2,1.3-3,2-5.4,2c-5.1,0-9.5-3.9-9.5-10.2c0-6.3,4.4-10.2,9.5-10.2
	c2.2,0,3.8,0.5,5,1.7v-8.4H62.5z M54.5,75.6c0-2.6-1.4-3.9-3.2-3.9s-3.2,1.3-3.2,3.9s1.4,3.9,3.2,3.9S54.5,78.1,54.5,75.6z
	 M85.5,78.9v6.6H65.3v-5.2l9.1-8.4c1.7-1.6,2-2.6,2-3.5c0-1.2-0.8-2-2.4-2c-1.5,0-3,0.8-3.7,2.3l-6.4-3.2c1.8-3.5,5.5-5.8,10.9-5.8
	c6,0,10.2,3.1,10.2,7.9c0,2.5-0.6,4.7-4.3,8L77,78.9H85.5z M87.2,72.8c0-8.4,4.8-13.2,11.4-13.2S110,64.5,110,72.8
	c0,8.4-4.8,13.2-11.4,13.2S87.2,81.2,87.2,72.8z M101.5,72.8c0-4.9-1.2-6.4-2.9-6.4s-2.9,1.5-2.9,6.4s1.2,6.4,2.9,6.4
	S101.5,77.7,101.5,72.8z"/>
</svg>
