<?xml version="1.0" encoding="utf-8"?>
<!-- Generator: Adobe Illustrator 25.3.1, SVG Export Plug-In . SVG Version: 6.00 Build 0)  -->
<svg version="1.1" id="d4" xmlns="http://www.w3.org/2000/svg" xmlns:xlink="http://www.w3.org/1999/xlink" x="0px" y="0px"
	 viewBox="0 0 150 150" style="enable-background:new 0 0 150 150;" xml:space="preserve">
<style type="text/css">
	.st0{fill:#FFFFFF;}
</style>
<g>
	<path d="M134.9,103L78.3,14.8c-0.9-1.4-2.5-2.3-4.2-2.3c-1.7,0-3.3,0.9-4.2,2.3l-56.6,88.3c-0.3,0.4-0.5,0.9-0.6,1.4
		c0,0.2-0.1,0.4-0.1,0.5c0,0,0,0,0,0c0,0,0,0,0,0c-0.1,0.9,0,1.8,0.3,2.6c0,0,0,0,0,0c0,0,0,0,0,0c0,0,0,0,0,0c0,0,0,0,0,0
		c0.1,0.2,0.2,0.4,0.3,0.6c0,0,0,0.1,0.1,0.1c0,0,0,0,0,0c0,0,0,0,0,0c0,0,0,0,0,0c0,0,0,0,0,0c0,0,0,0,0,0c0,0,0,0,0,0c0,0,0,0,0,0
		c0,0,0,0,0,0c0,0,0,0,0,0c0,0,0,0,0,0c0.5,0.8,1.2,1.5,2.2,2c0,0,0,0,0,0c0,0,0,0,0,0c0.1,0,0.1,0.1,0.2,0.1L72.1,135
		c0.6,0.3,1.3,0.4,2,0.4c0.7,0,1.4-0.1,2-0.4l56.6-24.5c1.8-0.7,3.1-2.5,3.1-4.6C135.8,104.8,135.4,103.8,134.9,103z"/>
</g>
<g>
	<path class="st0" d="M74.1,17.5l28.3,44.1L78.3,28.1c-2-2.7-6.1-2.6-8,0.1L34.4,79.3L74.1,17.5z M130.8,105.8l-0.2,0.1l-96.5,2
		c-1.6,0-2.1,2.1-0.7,2.9l18.5,10l-34.5-14.9H130.8z"/>
</g>
<path class="st0" d="M73.1,66.1v26.7h-7.7v-1.6c-1.2,1.3-3,2-5.4,2c-5.1,0-9.5-3.9-9.5-10.2c0-6.3,4.4-10.2,9.5-10.2
	c2.2,0,3.8,0.5,5,1.7v-8.4H73.1z M65.1,82.9c0-2.6-1.4-3.9-3.2-3.9s-3.2,1.3-3.2,3.9s1.4,3.9,3.2,3.9S65.1,85.5,65.1,82.9z
	 M100.4,88.4H97v4.3h-8.2v-4.3H75.7V83l10.7-15.5h8.7l-9.5,14.3H89V78h8v3.9h3.3V88.4z"/>
</svg>
