<?xml version="1.0" encoding="utf-8"?>
<!-- Generator: Adobe Illustrator 25.3.1, SVG Export Plug-In . SVG Version: 6.00 Build 0)  -->
<svg version="1.1" id="d8" xmlns="http://www.w3.org/2000/svg" xmlns:xlink="http://www.w3.org/1999/xlink" x="0px" y="0px"
	 viewBox="0 0 150 150" style="enable-background:new 0 0 150 150;" xml:space="preserve">
<style type="text/css">
	.st0{fill:#FFFFFF;}
</style>
<path d="M124.6,69.6L78.9,14.3c-0.9-1.1-2.4-1.8-3.9-1.8c-1.5,0-2.9,0.7-3.9,1.8L25.4,69.6c-0.7,0.9-1.1,2-1.1,3.2l0,24
	c0,1.5,0.7,3,1.9,3.9l45.8,35.7c0.9,0.7,2,1.1,3.1,1.1s2.2-0.4,3.1-1.1l45.8-35.7c1.2-0.9,1.9-2.4,1.9-3.9l0-24
	C125.8,71.6,125.4,70.5,124.6,69.6z"/>
<path class="st0" d="M51,46.4L33.9,70.3c-1.5,2.1-2.5,4.4-3,6.9l-1.7,8.3l0-12.8L51,46.4z M39.9,98.6c-1.9,0-2.8,2.4-1.4,3.6
	l15.1,13.6L29.2,96.8h86.2L39.9,98.6z M120.8,96.8L120.8,96.8L90.4,44.2L77.3,28.1c-1.2-1.4-3.4-1.4-4.5,0L59.6,44.2L75,17.5
	l15.4,26.7l26.1,40.5c0.8,1.3,2.8,0.9,3.1-0.6l1.2-6.2L120.8,96.8z"/>
<path class="st0" d="M73.7,58.7v26.7h-7.7v-1.6c-1.2,1.3-3,2-5.4,2c-5.1,0-9.5-3.9-9.5-10.2c0-6.3,4.4-10.2,9.5-10.2
	c2.2,0,3.8,0.5,5,1.7v-8.4H73.7z M65.7,75.6c0-2.6-1.4-3.9-3.2-3.9s-3.2,1.3-3.2,3.9s1.4,3.9,3.2,3.9S65.7,78.1,65.7,75.6z M99,78
	c0,4.9-4.6,8.1-11.3,8.1S76.4,82.8,76.4,78c0-2.5,1.3-4.5,3.4-5.8c-1.5-1.2-2.5-2.9-2.5-5c0-4.6,4.3-7.5,10.4-7.5
	c6.1,0,10.4,3,10.4,7.5c0,2.1-0.9,3.7-2.5,5C97.7,73.5,99,75.4,99,78z M90.5,77.7c0-1.6-1.2-2.6-2.8-2.6c-1.6,0-2.8,1-2.8,2.6
	c0,1.6,1.2,2.6,2.8,2.6C89.3,80.3,90.5,79.3,90.5,77.7z M85.7,67.5c0,1.4,0.9,2.2,2,2.2s2-0.8,2-2.2c0-1.4-0.9-2.2-2-2.2
	S85.7,66.2,85.7,67.5z"/>
</svg>
