<?xml version="1.0" encoding="utf-8"?>
<!-- Generator: Adobe Illustrator 25.3.1, SVG Export Plug-In . SVG Version: 6.00 Build 0)  -->
<svg version="1.1" id="dF" xmlns="http://www.w3.org/2000/svg" xmlns:xlink="http://www.w3.org/1999/xlink" x="0px" y="0px"
	 viewBox="0 0 150 150" style="enable-background:new 0 0 150 150;" xml:space="preserve">
<style type="text/css">
	.st0{fill:#FFFFFF;}
</style>
<path d="M127.1,41.4L78.2,13.2c-0.8-0.4-1.6-0.7-2.5-0.7s-1.7,0.2-2.5,0.7L24.3,41.4c-1.5,0.9-2.5,2.5-2.5,4.3v56.5
	c0,1.8,1,3.4,2.5,4.3l48.9,28.2c0.8,0.4,1.6,0.7,2.5,0.7s1.7-0.2,2.5-0.7l48.9-28.2c1.5-0.9,2.5-2.5,2.5-4.3V45.7
	C129.6,44,128.7,42.3,127.1,41.4z"/>
<path class="st0" d="M75.7,17.5l38.4,22.2L79.4,22.9c-2.3-1.2-5.1-1.1-7.3,0.1L37,42.3c-2.4,1.3-3.3,2.8-1.8,4.8l6.2,7.2L26.8,46
	v-0.2L75.7,17.5z M26.8,62.2l2.8,34.1c0.1,2.5,1.4,4.8,3.5,6.1l27.1,19.1l-33.4-19.3C26.8,102.2,26.8,62.2,26.8,62.2z M124.6,102.2
	l-48.9,28.2l0,0v-9.3l0.9,2.1c0.7,1.6,2.6,2.2,4.1,1.4l40-21.9c1.5-0.8,2.5-2.4,2.6-4.2l1.4-43.9L124.6,102.2L124.6,102.2z"/>
<path class="st0" d="M93.4,56.4V68H81.5v11h-13V68H56.6V56.4h11.9V45.5h13v10.9H93.4z M56.6,83.6h36.7v12.2H56.6V83.6z"/>
</svg>
