<?xml version="1.0" encoding="utf-8"?>
<!-- Generator: Adobe Illustrator 25.3.1, SVG Export Plug-In . SVG Version: 6.00 Build 0)  -->
<svg version="1.1" id="dPercentile" xmlns="http://www.w3.org/2000/svg" xmlns:xlink="http://www.w3.org/1999/xlink" x="0px"
	 y="0px" viewBox="0 0 150 150" style="enable-background:new 0 0 150 150;" xml:space="preserve">
<style type="text/css">
	.st0{fill:#FFFFFF;}
</style>
<path d="M75,12.5c-1.2,0-2.5,0.5-3.5,1.4l-56.2,54c-1.5,1.4-1.9,3.6-1.2,5.4L19,85.6c0.3,0.7,0.7,1.3,1.2,1.8l51.4,48.8
	c1,0.9,2.2,1.4,3.4,1.4s2.5-0.5,3.4-1.4l51.4-48.8c0.5-0.5,0.9-1.1,1.2-1.8l4.8-12.3c0.7-1.9,0.3-4-1.2-5.4l-56.2-54
	C77.5,13,76.2,12.5,75,12.5L75,12.5z"/>
<path class="st0" d="M131.2,71.5l-4.8,12.3l-11.9-2.6l-7.3-11.7l6.9,7.2c1,1.1,2.4,1.8,3.8,2.1l5.4,1.1c1.4,0.3,2.9-0.3,3.6-1.5
	L131.2,71.5z M72.9,24.2c1-1.4,3.1-1.3,4,0.1l23.4,34L75,17.5L60.3,41.2L72.9,24.2z M79.7,96.5l9-5.8l-13.6,5v36.8l2.5-32.5
	C77.7,98.6,78.4,97.2,79.7,96.5z M23.6,83.7L50.3,109L29.7,87.2c-1-1.1-0.5-2.9,1-3.3l2.4-0.5c1.7-0.4,3.5-0.4,5.2-0.1l6.4,1.2
	l-9.1-3.3L23.6,83.7l-1.3-9.3c-0.2-1.6,0.3-3.3,1.4-4.5L54,37.6L18.8,71.5L23.6,83.7"/>
<path class="st0" d="M69.4,58.7v26.7h-7.7v-1.6c-1.2,1.3-3,2-5.4,2c-5.1,0-9.5-3.9-9.5-10.2c0-6.3,4.4-10.2,9.5-10.2
	c2.2,0,3.8,0.5,5,1.7v-8.4H69.4z M61.4,75.6c0-2.6-1.4-3.9-3.2-3.9S55,73,55,75.6s1.4,3.9,3.2,3.9S61.4,78.1,61.4,75.6z M71.8,66.9
	c0-4.5,2.9-7,6.7-7s6.7,2.6,6.7,7c0,4.5-2.9,7-6.7,7S71.8,71.4,71.8,66.9z M93.2,60.2h6.1L82.1,85.4H76L93.2,60.2z M80,66.9
	c0-2.4-0.8-3.1-1.6-3.1s-1.6,0.7-1.6,3.1s0.8,3.1,1.6,3.1S80,69.3,80,66.9z M90.2,78.8c0-4.5,2.9-7,6.7-7s6.7,2.6,6.7,7
	c0,4.5-2.9,7-6.7,7S90.2,83.3,90.2,78.8z M98.5,78.8c0-2.4-0.8-3.1-1.6-3.1s-1.6,0.7-1.6,3.1s0.8,3.1,1.6,3.1S98.5,81.2,98.5,78.8z"
	/>
</svg>
